<svg width="33.000000" height="32.000000" viewBox="0 0 33 32" fill="none" xmlns="http://www.w3.org/2000/svg" xmlns:xlink="http://www.w3.org/1999/xlink">
	<desc>
			Created with Pixso.
	</desc>
	<defs/>
	<path id="Vector" d="M24.27 9L26.97 9L32 23L29.26 23L27.99 19.5L23.22 19.5L21.96 23L19.23 23L24.27 9ZM27.51 17.59L25.62 11.81L23.66 17.59L27.51 17.59Z" fill="#202020" fill-opacity="1.000000" fill-rule="evenodd"/>
	<path id="Vector" d="M6.1 9.03L8.56 9.03L10.12 13.67L11.7 9.03L14.15 9.03L11.8 15.4L13.53 19.86L17.4 9L20.29 9L14.82 23L12.53 23L10.12 17.12L7.73 23L5.44 23L0 9L2.84 9L6.73 19.86L8.43 15.4L6.1 9.03Z" fill="#F5F4F4" fill-opacity="1.000000" fill-rule="evenodd"/>
</svg>
