<svg width="54.000000" height="48.000000" viewBox="0 0 54 48" fill="none" xmlns="http://www.w3.org/2000/svg" xmlns:xlink="http://www.w3.org/1999/xlink">
	<desc>
			Created with Pixso.
	</desc>
	<defs/>
	<path id="Vector" d="M40.38 10.64L44.86 10.64L53.21 33.36L48.67 33.36L46.56 27.69L38.62 27.69L36.54 33.36L32 33.36L40.38 10.64ZM45.76 24.59L42.62 15.21L39.36 24.59L45.76 24.59Z" fill="#202020" fill-opacity="1.000000" fill-rule="evenodd"/>
	<path id="Vector" d="M10.14 10.7L14.24 10.7L16.83 18.22L19.45 10.7L23.52 10.7L19.61 21.04L22.49 28.27L28.92 10.64L33.72 10.64L24.64 33.36L20.83 33.36L16.83 23.82L12.86 33.36L9.05 33.36L0 10.64L4.73 10.64L11.2 28.27L14.01 21.04L10.14 10.7Z" fill="#F5F4F4" fill-opacity="1.000000" fill-rule="evenodd"/>
</svg>
